<?xml version="1.0" encoding="UTF-8" standalone="no"?>
<svg
   version="1.0"
   width="500.000000pt"
   height="500.000000pt"
   viewBox="0 0 500.000000 500.000000"
   preserveAspectRatio="xMidYMid meet"
   id="svg6"
   sodipodi:docname="design.svg"
   inkscape:version="1.2.1 (9c6d41e410, 2022-07-14)"
   xmlns:inkscape="http://www.inkscape.org/namespaces/inkscape"
   xmlns:sodipodi="http://sodipodi.sourceforge.net/DTD/sodipodi-0.dtd"
   xmlns="http://www.w3.org/2000/svg"
   xmlns:svg="http://www.w3.org/2000/svg">
  <defs
     id="defs10" />
  <sodipodi:namedview
     id="namedview8"
     pagecolor="#ffffff"
     bordercolor="#000000"
     borderopacity="0.25"
     inkscape:showpageshadow="2"
     inkscape:pageopacity="0.0"
     inkscape:pagecheckerboard="0"
     inkscape:deskcolor="#d1d1d1"
     inkscape:document-units="pt"
     showgrid="false"
     inkscape:zoom="0.59078772"
     inkscape:cx="114.25424"
     inkscape:cy="379.1548"
     inkscape:window-width="1348"
     inkscape:window-height="725"
     inkscape:window-x="7"
     inkscape:window-y="32"
     inkscape:window-maximized="1"
     inkscape:current-layer="g4" />
  <g
     transform="translate(0.000000,500.000000) scale(0.100000,-0.100000)"
     fill="#000000"
     stroke="none"
     id="g4">
    <path
       d="M1410 4371 l-1075 -627 0 -1253 0 -1253 1078 -619 1079 -619 1081 623 1082 623 3 1246 c2 989 -1 1248 -10 1256 -17 13 -2140 1244 -2153 1247 -5 2 -494 -279 -1085 -624z m724 -471 l363 -210 362 210 363 210 409 -237 c326 -188 407 -239 397 -248 -13 -12 -1516 -881 -1534 -887 -16 -5 -1555 885 -1546 894 12 12 805 476 815 477 5 1 172 -94 371 -209z m-606 -1079 l752 -433 0 -899 c0 -494 -3 -899 -7 -898 -5 0 -192 107 -418 237 l-410 237 -5 389 -5 389 -352 205 -353 204 0 515 0 515 23 -14 c12 -8 361 -209 775 -447z m2720 -47 l-3 -507 -350 -202 -350 -202 -5 -399 -5 -399 -420 -242 c-231 -133 -423 -243 -427 -243 -5 0 -8 405 -8 899 l0 899 778 450 c427 248 780 451 785 451 4 1 6 -227 5 -505z"
       id="path2"
       style="fill:#fbf1c0;fill-opacity:1" />
    <path
       style="opacity:0.873043;fill:#f4dd77;fill-opacity:1;stroke-width:1.69266"
       d="M 188.33232,583.32672 44.904198,501.02599 45.302946,334.40948 45.701695,167.79296 129.48814,118.90367 C 254.20796,46.129793 327.67584,3.8762595 331.00414,3.0058866 332.77456,2.5429156 354.98959,14.322355 386.18271,32.264098 521.70198,110.21246 616.3184,165.57271 618.24237,168.04266 c 1.65952,2.13045 2.11582,38.20091 2.11582,167.25416 v 164.53791 l -140.91356,81.16984 c -77.50245,44.64339 -142.43695,81.94676 -144.29887,82.89634 -2.86309,1.4602 -25.51018,-10.96899 -146.81344,-80.57419 z m 231.44621,-28.06991 c 26.99786,-15.52069 49.82834,-28.94827 50.73442,-29.8391 0.9585,-0.94235 2.02025,-23.66307 2.53898,-54.33268 l 0.89157,-52.71301 45.86479,-26.37924 45.86478,-26.37922 1.23523,-48.55748 c 1.08105,-42.49611 0.13287,-87.70128 -1.83949,-87.70128 -0.88626,0 -50.21696,28.25679 -136.827,78.37496 l -71.09153,41.13814 -0.51426,104.85419 c -0.28284,57.66981 -0.0228,111.87984 0.57779,120.46676 l 1.09207,15.61258 6.19281,-3.16259 c 3.40607,-1.73944 28.28199,-15.86135 55.27984,-31.38203 z M 304.40164,506.67215 c 0.61746,-44.83909 1.12265,-98.81978 1.12265,-119.95708 V 348.2836 L 202.32079,288.81921 C 145.55886,256.11379 98.714627,229.3548 98.222486,229.3548 c -0.492141,0 -0.887487,31.03907 -0.878546,68.97571 l 0.01625,68.97571 46.33237,26.75309 46.33236,26.75311 1.24655,52.3442 1.24654,52.3442 54.38733,31.31528 c 29.91303,17.22339 54.83424,31.3302 55.38048,31.34845 0.54624,0.0183 1.49836,-36.65334 2.11582,-81.4924 z m 72.47803,-229.59227 c 77.63095,-44.45202 156.30672,-90.36095 158.57948,-92.5344 1.88459,-1.80223 1.30645,-2.90025 -3.38531,-6.42945 -7.63338,-5.74195 -99.95985,-59.26986 -102.30558,-59.31348 -1.02238,-0.019 -21.58814,11.39897 -45.70169,25.3733 -24.11357,13.97432 -45.53685,26.30459 -47.60731,27.40058 -3.37259,1.78532 -8.821,-0.91393 -52.33966,-25.93007 l -48.57521,-27.92283 -9.44224,5.35095 c -15.48707,8.77655 -77.61704,45.1537 -88.78612,51.98434 -5.70178,3.48702 -10.36688,6.95211 -10.36688,7.70018 0,1.48357 36.27433,23.10941 115.10057,68.62004 68.24304,39.4004 89.3383,50.91487 91.66724,50.03498 1.07609,-0.40654 20.49931,-11.35691 43.16271,-24.33414 z"
       id="path1541"
       transform="matrix(7.5,0,0,-7.5,0,5000)" />
    <path
       style="opacity:0.873043;fill:#f4dd77;fill-opacity:1;stroke-width:1.69266"
       d="M 311.35881,651.8318 C 295.14322,643.25434 109.48074,537.47329 57.860337,507.40126 L 46.321804,500.67937 46.489992,334.97782 C 46.619785,207.10373 47.128619,168.85136 48.718921,167.41493 49.852328,166.39119 77.058136,150.29344 109.17627,131.64215 242.55318,54.188974 307.09267,16.935345 319.13966,10.446628 l 12.76904,-6.8776284 18.12026,9.5905234 c 45.70171,24.188579 262.64341,150.924207 266.68703,155.796467 1.39563,1.68165 2.21039,47.54739 2.95502,166.34958 l 1.0281,164.02776 -25.98344,14.61779 c -14.29091,8.03978 -78.41147,44.79156 -142.49015,81.67062 -64.07867,36.87906 -117.39732,67.04134 -118.48588,67.02731 -1.08855,-0.0135 -11.15993,-4.8818 -22.38083,-10.81725 z m 100.41211,-91.13971 c 28.03658,-16.05907 53.05339,-30.75858 55.59288,-32.66557 l 4.61727,-3.46727 1.37192,-41.3881 c 0.75457,-22.76346 1.57696,-46.63271 1.82756,-53.04279 l 0.45561,-11.65471 44.85537,-25.87409 44.85536,-25.87409 1.31462,-17.48251 c 1.60928,-21.40102 0.87595,-117.42165 -0.91039,-119.20441 -1.59711,-1.59391 3.81726,-4.59832 -112.54264,62.44934 l -96.90452,55.83728 0.0232,116.97413 c 0.0136,64.33578 0.48241,118.68796 1.04376,120.78262 0.56134,2.09466 1.5615,3.80848 2.22256,3.80848 0.66105,0 24.14096,-13.13924 52.17754,-29.19831 z M 304.40327,546.30452 c 0.61253,-23.04127 1.09497,-77.31203 1.07211,-120.60169 l -0.0416,-78.70848 -30.8457,-17.66604 C 257.62289,319.61199 211.46882,293.1431 172.02343,270.50854 132.57808,247.87399 99.62633,229.3548 98.797356,229.3548 c -0.86394,0 -1.318604,29.72968 -1.065285,69.65697 l 0.44194,69.65698 44.855369,25.90085 44.85537,25.90082 1.1212,8.11733 c 0.61666,4.46453 1.19188,21.06615 1.27825,36.89248 0.0864,15.82632 0.63857,36.04543 1.2271,44.93133 l 1.07006,16.15619 53.50932,30.75958 c 29.43013,16.91775 54.33947,30.78451 55.35411,30.81499 1.25404,0.0376 2.20142,-13.35975 2.95848,-41.8378 z m 49.85934,-255.40057 c 31.59958,-17.91754 136.19097,-78.42797 160.72779,-92.98763 12.33522,-7.31948 22.42768,-14.23862 22.42768,-15.37583 0,-2.53968 -19.68939,-14.82432 -69.14281,-43.13976 l -37.82868,-21.65949 -7.02668,3.55546 c -3.86467,1.95551 -25.50033,14.12942 -48.07924,27.05315 l -41.05256,23.49768 -10.57342,-5.32663 c -5.81539,-2.92965 -26.41528,-14.39779 -45.77751,-25.48475 -19.36225,-11.08696 -37.04739,-20.99798 -39.30033,-22.02449 -3.69571,-1.68388 -9.10823,1.06528 -55.35299,28.11533 -28.19121,16.48993 -52.78013,31.14358 -54.64205,32.56365 -3.33556,2.54399 -3.31585,2.63504 1.34101,6.19508 13.98111,10.68815 197.5629,116.17532 202.27527,116.22853 1.20467,0.0135 11.1067,-5.03102 22.00452,-11.2103 z"
       id="path1543"
       transform="matrix(7.5,0,0,-7.5,0,5000)" />
    <path
       style="opacity:0.873043;fill:#f4dd77;fill-opacity:1;stroke-width:1.69266"
       d="M 306.41267,648.87197 C 292.48731,641.28055 233.84332,608.02639 176.09268,574.97385 118.34205,541.92132 65.573845,511.76157 58.830015,507.95217 l -12.261512,-6.92618 0.21136,-159.10961 C 46.896111,254.4061 47.336831,179.34234 47.75924,175.10802 l 0.768018,-7.69875 15.513772,-9.11263 c 8.532574,-5.01195 23.511569,-13.81452 33.286654,-19.56128 9.775086,-5.74676 30.340846,-17.71432 45.701696,-26.59459 15.36085,-8.88027 53.44559,-30.937386 84.63277,-49.015808 31.18717,-18.078424 67.31223,-38.889502 80.27792,-46.246839 L 331.51404,3.5011455 348.5638,12.542451 c 31.84306,16.88603 201.34372,115.023059 248.09722,143.642639 l 19.46553,11.9156 1.07352,10.73835 c 0.59043,5.9061 1.61468,80.43345 2.2761,165.61633 l 1.2026,154.87796 -25.97328,14.61244 c -14.28531,8.03685 -71.78258,40.92135 -127.77175,73.07668 -55.98914,32.15532 -107.0227,61.30896 -113.40791,64.78586 -6.38518,3.4769 -13.1119,7.34417 -14.94822,8.59395 -1.83632,1.24977 -4.12792,2.27232 -5.09243,2.27232 -0.96452,0 -13.14714,-6.21117 -27.07251,-13.80261 z m 105.01521,-87.93431 c 27.8538,-15.92401 52.69023,-30.41031 55.19208,-32.19178 3.65673,-2.60381 4.72437,-4.97561 5.44407,-12.09414 1.12939,-11.1707 2.70112,-57.58869 2.71514,-80.18664 l 0.0107,-17.16655 30.04463,-17.39767 c 16.52455,-9.56874 36.97384,-21.43332 45.44289,-26.36575 l 15.39826,-8.96808 1.09636,-16.55698 c 1.39494,-21.06535 1.41532,-105.91139 0.0274,-114.30781 -0.57705,-3.4911 -1.70803,-6.34746 -2.51328,-6.34746 -1.36602,0 -68.20167,38.11298 -166.08899,94.71214 l -41.89317,24.22297 v 118.12282 c 0,64.96755 0.46233,119.32766 1.02742,120.80024 0.56508,1.47259 1.57324,2.67743 2.24033,2.67743 0.66711,0 24.00238,-13.02874 51.85617,-28.95274 z m -107.51085,0.0408 c 0.51244,-14.35464 1.08848,-68.37342 1.28007,-120.04173 l 0.34835,-93.94237 -5.51171,-3.17686 C 213.86327,294.15021 99.952864,229.3548 98.808207,229.3548 c -0.878251,0 -1.331812,29.38893 -1.076136,69.7293 l 0.44194,69.72927 44.855369,25.81867 44.85537,25.81868 1.01123,9.81984 c 0.55618,5.40091 1.13239,22.00695 1.28047,36.90232 0.14807,14.89537 0.74372,34.35942 1.32366,43.25344 l 1.05443,16.17095 53.52273,30.74333 c 29.4375,16.90883 54.28443,30.51697 55.21539,30.24027 0.97967,-0.29115 2.08511,-11.49675 2.62437,-26.60242 z m 40.14082,-264.24347 c 17.73647,-9.87397 149.87409,-86.21952 170.03363,-98.24082 23.37369,-13.93795 25.43617,-15.86568 20.72372,-19.3698 -5.42588,-4.03462 -45.26391,-27.80362 -75.77939,-45.21309 l -28.44893,-16.23049 -7.94316,4.02859 c -4.36874,2.21572 -26.08124,14.38463 -48.25003,27.04203 l -40.30689,23.01344 -7.08747,-3.59275 c -3.8981,-1.97602 -25.13388,-13.78045 -47.19062,-26.23207 -22.05674,-12.45162 -41.24419,-23.07716 -42.63878,-23.61232 -1.45091,-0.55676 -12.89716,4.98235 -26.75673,12.94823 -25.49551,14.6537 -78.29632,45.95514 -82.61772,48.97753 -4.11983,2.88141 -3.50454,3.2915 68.55254,45.6901 17.522,10.31 104.54937,59.99979 121.02486,69.10125 6.98221,3.85714 13.65858,7.03126 14.83638,7.05358 1.1778,0.0224 6.50966,-2.39121 11.84859,-5.36341 z"
       id="path1545"
       transform="matrix(7.5,0,0,-7.5,0,5000)" />
    <path
       style="opacity:0.873043;fill:#fbf1c7;fill-opacity:1;stroke-width:1.69266"
       d="M 309.74381,650.72648 C 297.648,644.15502 233.46675,607.79211 167.11883,569.92001 L 46.486249,501.06164 46.693372,340.24155 C 46.80729,251.79051 47.270639,176.6913 47.723036,173.35443 48.678097,166.30992 35.446132,174.60363 174.3435,93.98953 295.46882,23.690076 329.53979,4.2316384 331.50608,4.2316384 c 0.91364,0 9.47611,4.1732415 19.02768,9.2738696 43.87461,23.429459 258.68004,148.550172 264.15717,153.867302 3.18598,3.09293 3.82951,26.69229 4.9904,183.00685 l 1.10622,148.95367 -143.04028,81.67063 c -78.67215,44.91884 -143.70871,81.67062 -144.52567,81.67062 -0.81696,0 -11.38197,-5.37665 -23.47779,-11.9481 z m 73.42697,-73.80164 c 26.67322,-14.99288 72.72133,-41.64587 81.67743,-47.27551 7.64338,-4.8045 7.78252,-5.79435 9.25828,-65.86176 0.59468,-24.20497 1.56298,-44.51303 2.15177,-45.12902 0.58881,-0.61597 20.87462,-12.54833 45.07959,-26.51634 l 44.00904,-25.39638 1.05681,-13.26104 c 1.41642,-17.77363 0.95082,-121.84424 -0.55184,-123.34466 -1.5241,-1.52185 -6.24567,1.09743 -116.87502,64.83606 l -92.67288,53.39309 v 115.471 c 0,105.40839 0.4844,126.05012 2.95806,126.05012 0.46325,0 11.22219,-5.8345 23.90876,-12.96556 z m -78.14907,-113.13727 0.86021,-116.79322 -22.6065,-12.81892 c -12.43357,-7.05042 -58.02531,-33.09055 -101.31497,-57.86696 -43.28966,-24.77641 -80.04996,-45.56154 -81.68955,-46.1892 -2.820956,-1.07989 -2.957333,2.61038 -2.538985,68.70348 l 0.442096,69.84466 44.855369,25.86967 44.85537,25.86965 1.00522,9.84182 c 0.55288,5.41301 1.1278,21.26727 1.27761,35.23168 0.14982,13.9644 0.74836,33.42583 1.3301,43.2476 l 1.05772,17.85776 38.285,21.91964 c 21.05675,12.0558 45.50864,25.91086 54.33757,30.78903 15.86174,8.76396 16.07,8.82433 17.51807,5.07796 0.80601,-2.08528 1.85257,-56.34838 2.32567,-120.58465 z m 36.52777,-166.10601 c 15.84089,-7.99641 177.46581,-101.59981 188.67481,-109.26906 8.12991,-5.56252 8.33899,-6.02034 4.23164,-9.26558 -4.13173,-3.26449 -54.24066,-33.11024 -81.47078,-48.52541 l -22.65102,-12.8229 -6.97045,3.53359 c -3.83375,1.94347 -25.50204,14.13121 -48.15173,27.08387 l -41.18129,23.55028 -14.67634,-7.91622 c -8.072,-4.35392 -30.03811,-16.62485 -48.81359,-27.26873 l -34.13725,-19.35251 -7.33281,3.70435 c -12.74268,6.43727 -98.84649,56.93204 -102.94256,60.36969 -0.45157,0.37898 1.07182,2.16091 3.38531,3.95986 11.58106,9.00529 198.5056,116.67619 202.5584,116.67619 0.35611,0 4.62108,-2.00584 9.47766,-4.45742 z"
       id="path1547"
       transform="matrix(7.5,0,0,-7.5,0,5000)" />
    <path
       style="opacity:0.253464;fill:#fbf1c7;fill-opacity:1;stroke-width:1.69266"
       d="M 312.29492,289.72265 C 280.55129,272.24347 139.1245,190.28136 130.67298,184.46594 c -2.67899,-1.84338 1.81645,-4.95571 37.23842,-25.78126 68.2713,-40.13859 66.75687,-39.33916 70.66734,-37.30317 1.90904,0.99394 23.85212,13.52399 48.7624,27.84455 44.13896,25.37484 45.40953,25.97535 49.93332,23.59953 2.55307,-1.34081 24.39931,-13.89863 48.54722,-27.90625 l 43.9053,-25.46841 5.18171,3.10885 c 2.84994,1.70987 25.12586,14.65953 49.50203,28.77703 24.37618,14.1175 45.99855,27.02712 48.04971,28.68805 l 3.72937,3.01987 -6.57963,3.91732 c -35.0277,20.85444 -196.0262,113.48682 -197.23528,113.48165 -0.33794,-10e-4 -9.37393,-4.82593 -20.07997,-10.72105 z"
       id="path1678"
       transform="matrix(7.5,0,0,-7.5,0,5000)" />
    <path
       style="opacity:0.253464;fill:#fbf1c7;fill-opacity:1;stroke-width:1.69266"
       d="m 359.12505,585.37664 c -0.62064,-0.62063 -1.12844,-53.82175 -1.12844,-118.2247 V 350.05567 l 97.75085,-56.37705 c 53.76296,-31.00738 100.1359,-57.79044 103.05096,-59.51792 5.28194,-3.13011 5.30359,-3.12777 6.32433,0.68142 1.36735,5.10268 1.33947,98.28029 -0.0347,115.93236 l -1.08487,13.93606 -46.27464,26.68767 -46.27463,26.68767 -0.0247,48.45226 c -0.0135,26.64874 -0.47888,50.72322 -1.03401,53.49884 -0.91588,4.57943 -5.96922,7.89014 -54.58814,35.76364 -29.46834,16.89438 -54.02313,30.71422 -54.56619,30.71076 -0.54307,-0.003 -1.49518,-0.51409 -2.11582,-1.13474 z"
       id="path1680"
       transform="matrix(7.5,0,0,-7.5,0,5000)" />
    <path
       style="opacity:0.253464;fill:#fbf1c7;fill-opacity:1;stroke-width:1.69266"
       d="m 247.12768,555.20218 c -27.92881,-16.19774 -51.35872,-29.68447 -52.06646,-29.97051 -0.70773,-0.28602 -1.85028,-24.0919 -2.53898,-52.90196 l -1.25218,-52.38193 -45.7017,-26.50144 -45.701693,-26.50144 -0.442405,-67.99395 -0.442405,-67.99395 8.194383,4.70003 c 4.50691,2.58502 50.57364,29.07427 102.37051,58.865 l 94.17612,54.16498 0.0499,83.78644 c 0.0591,99.15355 -1.34546,152.3747 -4.01829,152.25909 -1.01595,-0.0439 -24.69801,-13.33261 -52.62683,-29.53036 z"
       id="path1682"
       transform="matrix(7.5,0,0,-7.5,0,5000)" />
  </g>
</svg>
