<?xml version="1.0" encoding="UTF-8" standalone="no"?>
<svg
   version="1.0"
   width="500.000000pt"
   height="500.000000pt"
   viewBox="0 0 500.000000 500.000000"
   preserveAspectRatio="xMidYMid meet"
   id="svg8"
   sodipodi:docname="icon.svg"
   inkscape:version="1.2.1 (9c6d41e410, 2022-07-14)"
   xmlns:inkscape="http://www.inkscape.org/namespaces/inkscape"
   xmlns:sodipodi="http://sodipodi.sourceforge.net/DTD/sodipodi-0.dtd"
   xmlns="http://www.w3.org/2000/svg"
   xmlns:svg="http://www.w3.org/2000/svg">
  <defs
     id="defs12" />
  <sodipodi:namedview
     id="namedview10"
     pagecolor="#ffffff"
     bordercolor="#000000"
     borderopacity="0.25"
     inkscape:showpageshadow="2"
     inkscape:pageopacity="0.0"
     inkscape:pagecheckerboard="0"
     inkscape:deskcolor="#d1d1d1"
     inkscape:document-units="pt"
     showgrid="false"
     inkscape:zoom="0.41775"
     inkscape:cx="240.57451"
     inkscape:cy="356.67265"
     inkscape:window-width="1348"
     inkscape:window-height="725"
     inkscape:window-x="7"
     inkscape:window-y="32"
     inkscape:window-maximized="1"
     inkscape:current-layer="g6" />
  <g
     transform="translate(0.000000,500.000000) scale(0.100000,-0.100000)"
     fill="#000000"
     stroke="none"
     id="g6"
     style="opacity:0.583">
    <path
       d="M1794 4985 c-98 -17 -135 -30 -234 -81 -201 -103 -353 -288 -422 -516 -21 -71 -22 -90 -28 -673 -5 -591 -5 -601 -27 -640 -30 -56 -83 -104 -269 -243 -225 -168 -254 -207 -254 -338 0 -117 24 -146 333 -419 119 -104 166 -152 185 -190 l27 -50 6 -570 c5 -541 6 -574 26 -646 63 -227 217 -417 422 -523 138 -71 204 -87 374 -93 l147 -6 0 282 0 281 -102 0 c-120 0 -181 22 -235 84 -72 81 -67 41 -74 666 -7 613 -7 618 -66 760 -50 120 -94 182 -211 299 l-115 114 24 20 c185 147 286 292 341 492 21 77 22 103 27 670 6 580 6 591 28 630 28 53 78 99 133 124 36 16 66 21 148 21 l102 0 0 280 0 280 -107 -1 c-60 0 -140 -7 -179 -14z"
       id="path2"
       style="fill:#f4dd77;fill-opacity:1;opacity:1" />
    <path
       d="M2920 4721 l0 -281 103 0 c91 0 109 -3 155 -26 29 -14 67 -44 86 -66 66 -77 66 -74 66 -659 0 -321 4 -558 11 -606 25 -182 99 -332 229 -463 47 -48 101 -98 120 -112 l34 -25 -109 -105 c-161 -155 -247 -312 -275 -503 -5 -40 -10 -292 -10 -581 0 -567 0 -565 -66 -642 -19 -22 -57 -52 -86 -66 -46 -23 -64 -26 -155 -26 l-103 0 0 -281 0 -282 143 6 c118 4 157 9 227 32 290 93 491 301 572 590 21 77 22 101 28 645 5 565 5 565 28 612 17 35 65 84 190 195 254 224 283 253 308 308 49 104 23 236 -62 316 -22 20 -120 97 -219 171 -99 75 -186 146 -194 159 -48 79 -46 50 -51 664 -6 635 -7 642 -70 795 -77 188 -234 348 -424 435 -107 49 -186 66 -338 72 l-138 6 0 -282z"
       id="path4"
       style="fill:#fbf1c7;fill-opacity:1" />
    <path
       d="m 3171.0575,4732.4573 v -281 h 103 c 91,0 109,-3 155,-26 29,-14 67,-44 86,-66 66,-77 66,-74 66,-659 0,-321 4,-558 11,-606 25,-182 99,-332 229,-463 47,-48 101,-98 120,-112 l 34,-25 -109,-105 c -161,-155 -247,-312 -275,-503 -5,-40 -10,-292 -10,-581 0,-566.99996 0,-564.99996 -66,-641.99996 -19,-22 -57,-52 -86,-66 -46,-23 -64,-26 -155,-26 h -103 v -281 V 8.457335 l 143,6 c 118,4 157,9 227,32 290,93.000005 491,301.000005 572,590.000005 21,77 22,101 28,644.99996 5,565 5,565 28,612 17,35 65,84 190,195 254,224 283,253 308,308 49,104 23,236 -62,316 -22,20 -120,97 -219,171 -99,75 -186,146 -194,159 -48,79 -46,50 -51,664 -6,635 -7,642 -70,795 -77,188 -234,348 -424,435 -107,49 -186,66 -338,72 l -138,6 z"
       id="path1698"
       style="opacity:0.529822;fill:#fbf1c7;fill-opacity:1" />
    <path
       d="m 1526.0642,5002.3525 c -98,-17 -135,-30 -234,-81 -201,-103 -352.99997,-288 -421.99997,-516 -21,-71 -22,-90 -28,-673 -5,-591 -5,-601 -27,-640 -30,-56 -83,-104 -269,-243 -225,-168 -254,-207 -254,-338 0,-117 24,-146 333,-419 119,-104 166,-152 185,-190 l 27,-50 6,-570 c 5,-541.00004 6,-574.00004 26,-646.00004 63,-227 216.99997,-417 421.99997,-523 138,-70.999996 204,-86.999996 374,-92.999996 l 147,-6 v 281.999996 281 h -102 c -120,0 -181,22 -235,84 -72,81 -67,41 -74,666.00004 -7,613 -7,618 -66,760 -50,120 -94,182 -211,299 l -115,114 24,20 c 185,147 286,292 341,492 21,77 22,103 27,670 6,580 6,591 28,630 28,53 78,99 133,124 36,16 66,21 148,21 h 102 v 280 280 l -107,-1 c -60,0 -140,-7 -179,-14 z"
       id="path1740"
       style="opacity:0.531862;fill:#f4dd77;fill-opacity:1" />
    <path
       d="m 1526.0642,5002.3525 c -98,-17 -135,-30 -234,-81 -201,-103 -352.99997,-288 -421.99997,-516 -21,-71 -22,-90 -28,-673 -5,-591 -5,-601 -27,-640 -30,-56 -83,-104 -269,-243 -225,-168 -254,-207 -254,-338 0,-117 24,-146 333,-419 119,-104 166,-152 185,-190 l 27,-50 6,-570 c 5,-541.00004 6,-574.00004 26,-646.00004 63,-227 216.99997,-417 421.99997,-523 138,-70.999996 204,-86.999996 374,-92.999996 l 147,-6 v 281.999996 281 h -102 c -120,0 -181,22 -235,84 -72,81 -67,41 -74,666.00004 -7,613 -7,618 -66,760 -50,120 -94,182 -211,299 l -115,114 24,20 c 185,147 286,292 341,492 21,77 22,103 27,670 6,580 6,591 28,630 28,53 78,99 133,124 36,16 66,21 148,21 h 102 v 280 280 l -107,-1 c -60,0 -140,-7 -179,-14 z"
       id="path1793"
       style="opacity:0.531862;fill:#f4dd77;fill-opacity:1" />
    <path
       d="m 1376.0642,5002.3525 c -98,-17 -135,-30 -234,-81 -201,-103 -352.99997,-288 -421.99997,-516 -21,-71 -22,-90 -28,-673 -5,-591 -5,-601 -27,-640 -30,-56 -83,-104 -269,-243 -225,-168 -254,-207 -254,-338 0,-117 24,-146 333,-419 119,-104 166,-152 185,-190 l 27,-50 6,-570 c 5,-541.00004 6,-574.00004 26,-646.00004 63,-227 216.99997,-417 421.99997,-523 138,-70.999996 204,-86.999996 374,-92.999996 l 147,-6 v 281.999996 281 h -102 c -120,0 -181,22 -235,84 -72,81 -67,41 -74,666.00004 -7,613 -7,618 -66,760 -50,120 -94,182 -211,299 l -115,114 24,20 c 185,147 286,292 341,492 21,77 22,103 27,670 6,580 6,591 28,630 28,53 78,99 133,124 36,16 66,21 148,21 h 102 v 280 280 l -107,-1 c -60,0 -140,-7 -179,-14 z"
       id="path1795"
       style="opacity:0.393587;fill:#f4dd77;fill-opacity:1" />
    <path
       d="m 3321.0575,4732.4573 v -281 h 103 c 91,0 109,-3 155,-26 29,-14 67,-44 86,-66 66,-77 66,-74 66,-659 0,-321 4,-558 11,-606 25,-182 99,-332 229,-463 47,-48 101,-98 120,-112 l 34,-25 -109,-105 c -161,-155 -247,-312 -275,-503 -5,-40 -10,-292 -10,-581 0,-566.99996 0,-564.99996 -66,-641.99996 -19,-22 -57,-52 -86,-66 -46,-23 -64,-26 -155,-26 h -103 v -281 V 8.457335 l 143,6 c 118,4 157,9 227,32 290,93.000005 491,301.000005 572,590.000005 21,77 22,101 28,644.99996 5,565 5,565 28,612 17,35 65,84 190,195 254,224 283,253 308,308 49,104 23,236 -62,316 -22,20 -120,97 -219,171 -99,75 -186,146 -194,159 -48,79 -46,50 -51,664 -6,635 -7,642 -70,795 -77,188 -234,348 -424,435 -107,49 -186,66 -338,72 l -138,6 z"
       id="path1797"
       style="opacity:0.396939;fill:#fbf1c7;fill-opacity:1" />
  </g>
</svg>
