<?xml version="1.0" encoding="UTF-8" standalone="no"?>
<svg
   version="1.0"
   width="500.000000pt"
   height="500.000000pt"
   viewBox="0 0 500.000000 500.000000"
   preserveAspectRatio="xMidYMid meet"
   id="svg52"
   sodipodi:docname="Samip-Paudel.svg"
   inkscape:version="1.2.1 (9c6d41e410, 2022-07-14)"
   xmlns:inkscape="http://www.inkscape.org/namespaces/inkscape"
   xmlns:sodipodi="http://sodipodi.sourceforge.net/DTD/sodipodi-0.dtd"
   xmlns="http://www.w3.org/2000/svg"
   xmlns:svg="http://www.w3.org/2000/svg">
  <defs
     id="defs56" />
  <sodipodi:namedview
     id="namedview54"
     pagecolor="#ffffff"
     bordercolor="#000000"
     borderopacity="0.25"
     inkscape:showpageshadow="2"
     inkscape:pageopacity="0.0"
     inkscape:pagecheckerboard="0"
     inkscape:deskcolor="#d1d1d1"
     inkscape:document-units="pt"
     showgrid="false"
     inkscape:zoom="0.58548441"
     inkscape:cx="187.87861"
     inkscape:cy="391.12912"
     inkscape:window-width="1348"
     inkscape:window-height="725"
     inkscape:window-x="7"
     inkscape:window-y="32"
     inkscape:window-maximized="1"
     inkscape:current-layer="g168" />
  <g
     transform="translate(0.000000,500.000000) scale(0.100000,-0.100000)"
     fill="#000000"
     stroke="none"
     id="g50">
    <g
       id="g168"
       transform="translate(-718.82148,79.040593)">
      <path
         d="m 3079.8351,3834.9288 c -165,-24 -334,-116 -427,-232 -166,-209 -181,-521 -37,-764 70,-117 254,-270 724,-600 250,-176 336,-341 322,-618 -7,-125 -24,-200 -69,-294 -81,-169 -264,-270 -468,-257 -148,10 -240,54 -345,168 -146,155 -225,400 -261,806 -6,71 -6,72 -35,72 h -29 v -545 c 0,-538 0,-545 20,-545 17,0 20,7 20,48 0,99 34,222 62,222 6,0 50,-37 97,-83 95,-91 173,-143 277,-184 61,-23 86,-27 214,-30.99999 189,-5 290,14.99999 440,88.99999 90,44 117,64 191,138 130,130 192,269 205,461 12,157 -31,327 -122,482 -81,139 -190,238 -579,524 -366,269 -390,291 -436,413 -31,79 -38,245 -14,327 39,137 129,249 242,302 78,36 209,42 299,14 204,-64 351,-275 423,-605 18,-81 25,-143 47,-374 5,-51 7,-53 35,-53 h 29 v 550 c 0,479 -2,550 -15,550 -17,0 -21,-18 -30,-111 -7,-80 -25,-139 -49,-153 -14,-9 -27,0 -79,55 -183,194 -388,266 -652,228 z"
         id="path46"
         style="fill:#fbf1c7;fill-opacity:1" />
      <ellipse
         style="fill:#000000;stroke:#8ec07c;stroke-width:50.00000003;fill-opacity:0;stroke-dasharray:none"
         id="path16219"
         cx="3218.8215"
         cy="-2420.9595"
         transform="scale(1,-1)"
         rx="2499.9229"
         ry="2499.8003" />
    </g>
  </g>
</svg>
